<?xml version="1.0" standalone="no"?>
<!DOCTYPE svg PUBLIC "-//W3C//DTD SVG 20010904//EN"
 "http://www.w3.org/TR/2001/REC-SVG-20010904/DTD/svg10.dtd">
<svg version="1.0" xmlns="http://www.w3.org/2000/svg"
 width="187.000000pt" height="156.000000pt" viewBox="0 0 187.000000 156.000000"
 preserveAspectRatio="xMidYMid meet">

<g transform="translate(0.000000,156.000000) scale(0.100000,-0.100000)"
fill="#000000" stroke="none">
<path d="M0 780 l0 -780 935 0 935 0 0 780 0 780 -935 0 -935 0 0 -780z m1074
534 c3 -9 6 -129 6 -268 0 -183 -3 -255 -12 -264 -15 -15 -274 -17 -283 -2 -8
14 -9 525 -1 538 5 8 52 12 146 12 116 0 139 -2 144 -16z m-316 -36 c-3 -7
-24 -17 -49 -23 -52 -13 -52 8 7 -215 24 -91 44 -168 44 -172 0 -5 -6 -8 -13
-8 -20 0 -120 379 -106 397 22 26 124 44 117 21z m407 1 c24 -6 46 -18 49 -26
5 -12 -50 -241 -90 -375 -5 -16 -34 -27 -34 -13 0 3 22 87 49 187 28 100 48
185 45 188 -3 3 -24 10 -46 15 -23 6 -43 16 -46 23 -5 15 16 15 73 1z m-824
-781 c11 -18 4 -21 -21 -8 -11 6 -30 8 -40 5 -31 -10 -24 -44 12 -63 69 -38
85 -75 48 -112 -24 -24 -91 -27 -110 -5 -11 13 -7 14 32 9 33 -5 47 -2 57 10
19 23 8 42 -37 65 -57 29 -70 77 -29 106 24 18 76 13 88 -7z m159 12 c0 -5
-20 -10 -45 -10 l-45 0 0 -40 0 -40 40 0 c22 0 40 -4 40 -10 0 -5 -18 -10 -40
-10 l-40 0 0 -40 0 -40 45 0 c25 0 45 -4 45 -10 0 -6 -27 -10 -60 -10 l-60 0
0 110 0 110 60 0 c33 0 60 -4 60 -10z m56 -78 c3 -91 13 -112 54 -112 42 0 53
22 54 109 1 44 5 83 9 87 14 15 24 -16 22 -69 -2 -29 -3 -64 -4 -79 -2 -41
-34 -68 -81 -68 -66 0 -80 23 -80 131 0 63 3 90 11 87 7 -2 13 -36 15 -86z
m356 65 c10 -17 2 -20 -22 -7 -11 6 -30 8 -40 5 -31 -10 -24 -44 12 -63 69
-38 85 -75 48 -112 -32 -32 -120 -23 -120 12 0 5 9 4 19 -2 44 -23 101 -1 88
34 -3 8 -24 24 -46 36 -59 30 -69 89 -19 110 27 11 70 4 80 -13z m68 -58 c0
-96 10 -119 50 -119 45 0 60 31 60 123 0 59 3 78 13 74 8 -3 12 -30 12 -92 -1
-79 -3 -89 -24 -106 -32 -26 -89 -25 -118 3 -21 19 -23 30 -23 110 0 72 3 88
15 88 12 0 15 -16 15 -81z m285 56 c30 -30 31 -54 4 -89 -15 -19 -30 -26 -55
-26 -33 0 -34 -1 -34 -40 0 -29 -4 -40 -15 -40 -12 0 -15 18 -15 103 0 57 3
107 7 110 3 4 24 7 45 7 28 0 46 -7 63 -25z m165 15 c0 -5 -20 -10 -45 -10
l-45 0 0 -40 0 -40 40 0 c22 0 40 -4 40 -10 0 -5 -18 -10 -40 -10 l-40 0 0
-40 0 -40 44 0 c25 0 48 -4 51 -10 4 -6 -18 -10 -59 -10 l-66 0 0 103 c0 57 3
107 7 110 10 11 113 8 113 -3z m145 -14 c25 -25 25 -55 -1 -77 -11 -9 -9 -19
11 -60 29 -56 30 -59 11 -59 -8 0 -24 21 -37 48 -17 32 -31 48 -46 50 -21 3
-23 0 -23 -47 0 -39 -4 -51 -15 -51 -12 0 -15 18 -15 103 0 57 3 107 7 110 3
4 24 7 45 7 28 0 46 -7 63 -24z"/>
<path d="M900 1280 c0 -5 11 -10 25 -10 14 0 25 5 25 10 0 6 -11 10 -25 10
-14 0 -25 -4 -25 -10z"/>
<path d="M800 1070 l0 -161 128 3 127 3 3 158 3 157 -131 0 -130 0 0 -160z
m218 42 l21 -33 -21 -44 c-22 -45 -22 -45 -75 -45 l-52 0 -21 69 c-13 46 -26
71 -38 74 -12 3 -11 5 6 6 14 1 25 -6 30 -19 8 -21 8 -21 29 2 16 17 33 23 60
23 33 0 42 -5 61 -33z m-88 -152 c0 -5 -7 -10 -15 -10 -8 0 -15 5 -15 10 0 6
7 10 15 10 8 0 15 -4 15 -10z m50 0 c0 -5 -4 -10 -10 -10 -5 0 -10 5 -10 10 0
6 5 10 10 10 6 0 10 -4 10 -10z"/>
<path d="M910 1115 c-11 -13 -8 -15 20 -15 28 0 31 2 20 15 -7 8 -16 15 -20
15 -4 0 -13 -7 -20 -15z"/>
<path d="M972 1119 c2 -7 10 -15 17 -17 8 -3 12 1 9 9 -2 7 -10 15 -17 17 -8
3 -12 -1 -9 -9z"/>
<path d="M882 1078 c5 -15 37 -18 41 -4 1 5 -9 11 -21 13 -16 2 -22 -1 -20 -9z"/>
<path d="M940 1075 c0 -8 5 -15 10 -15 6 0 10 7 10 15 0 8 -4 15 -10 15 -5 0
-10 -7 -10 -15z"/>
<path d="M993 1083 c-20 -8 -15 -23 7 -23 11 0 20 7 20 15 0 15 -6 17 -27 8z"/>
<path d="M898 1038 c9 -9 15 -9 24 0 9 9 7 12 -12 12 -19 0 -21 -3 -12 -12z"/>
<path d="M940 1040 c0 -5 5 -10 10 -10 6 0 10 5 10 10 0 6 -4 10 -10 10 -5 0
-10 -4 -10 -10z"/>
<path d="M980 1040 c0 -5 4 -10 9 -10 6 0 13 5 16 10 3 6 -1 10 -9 10 -9 0
-16 -4 -16 -10z"/>
<path d="M900 1010 c0 -5 4 -10 9 -10 6 0 13 5 16 10 3 6 -1 10 -9 10 -9 0
-16 -4 -16 -10z"/>
<path d="M940 1010 c0 -5 5 -10 10 -10 6 0 10 5 10 10 0 6 -4 10 -10 10 -5 0
-10 -4 -10 -10z"/>
<path d="M907 863 c-13 -12 -7 -44 9 -50 23 -9 48 25 33 44 -12 14 -32 17 -42
6z m31 -20 c-4 -22 -22 -20 -26 1 -2 10 3 16 13 16 10 0 15 -7 13 -17z"/>
<path d="M1180 450 c0 -49 1 -50 30 -50 29 0 50 22 50 54 0 22 -28 46 -56 46
-22 0 -24 -4 -24 -50z"/>
<path d="M1490 460 c0 -38 2 -40 30 -40 31 0 51 24 42 50 -7 20 -22 30 -49 30
-20 0 -23 -5 -23 -40z"/>
</g>
</svg>
