<?xml version="1.0" standalone="no"?>
<!DOCTYPE svg PUBLIC "-//W3C//DTD SVG 20010904//EN"
 "http://www.w3.org/TR/2001/REC-SVG-20010904/DTD/svg10.dtd">
<svg version="1.0" xmlns="http://www.w3.org/2000/svg"
 width="200.000000pt" height="163.000000pt" viewBox="0 0 200.000000 163.000000"
 preserveAspectRatio="xMidYMid meet">

<g transform="translate(0.000000,163.000000) scale(0.100000,-0.100000)"
fill="#000000" stroke="none">
<path d="M0 815 l0 -815 1000 0 1000 0 0 815 0 815 -1000 0 -1000 0 0 -815z
m974 585 c35 -13 43 -33 51 -133 l7 -87 -31 -11 c-39 -14 -28 -32 27 -50 20
-6 45 -18 55 -27 42 -37 3 -101 -74 -122 -58 -16 -167 -8 -215 16 -35 17 -39
23 -42 62 l-3 43 60 26 c66 28 77 47 33 56 l-28 6 7 79 c10 113 34 151 96 152
17 0 43 -4 57 -10z m-217 -52 c18 -23 22 -82 7 -108 -20 -36 -18 -39 31 -60
25 -11 45 -24 45 -29 0 -6 -18 -16 -41 -22 -22 -7 -49 -24 -60 -38 -16 -20
-27 -25 -57 -22 -59 5 -92 27 -92 61 0 25 6 32 45 49 49 22 51 25 31 61 -17
30 -10 90 12 108 9 6 28 12 43 12 14 0 31 -6 36 -12z m412 -2 c20 -24 23 -86
6 -112 -13 -20 -13 -24 1 -38 8 -9 22 -16 30 -16 24 0 53 -37 47 -59 -8 -30
-26 -41 -83 -50 -48 -8 -52 -7 -60 14 -5 13 -26 28 -54 39 -25 10 -46 22 -46
28 0 5 18 17 40 25 43 17 47 27 26 67 -16 31 -6 93 16 107 21 14 64 10 77 -5z
m-415 -386 c18 0 22 -15 6 -25 -5 -3 -10 -14 -10 -24 0 -13 -8 -17 -35 -17
-27 0 -35 4 -35 17 0 10 -4 21 -10 24 -17 11 -11 25 10 25 11 0 23 7 27 16 6
16 7 16 18 0 7 -9 20 -16 29 -16z m410 0 c18 0 22 -15 6 -25 -5 -3 -10 -14
-10 -24 0 -13 -9 -17 -36 -18 -28 -1 -34 2 -29 14 3 9 -2 24 -11 34 -16 18
-16 19 5 19 12 0 24 7 28 16 6 16 7 16 18 0 7 -9 20 -16 29 -16z m-187 -70
c26 0 26 0 7 -21 -11 -13 -17 -32 -16 -50 3 -28 3 -29 -22 -18 -20 9 -32 9
-52 0 -25 -11 -26 -11 -20 15 5 20 1 33 -15 50 l-22 24 26 0 c18 0 32 9 44 26
l16 26 14 -26 c9 -18 22 -26 40 -26z m-687 -342 c0 -8 -14 -13 -37 -13 -32 0
-39 -4 -41 -23 -3 -18 4 -26 32 -37 65 -28 79 -80 29 -112 -28 -19 -93 -8
-101 16 -4 11 0 12 14 6 39 -16 61 -16 77 0 22 22 11 41 -39 69 -45 25 -59 70
-28 93 23 17 94 17 94 1z m70 -63 c0 -62 4 -79 20 -95 11 -11 27 -20 35 -20 8
0 24 9 35 20 16 16 20 33 20 96 0 56 3 75 13 71 8 -2 12 -28 12 -79 0 -60 -4
-80 -19 -96 -26 -29 -68 -36 -104 -18 -35 18 -42 39 -42 129 0 53 3 67 15 67
12 0 15 -15 15 -75z m294 59 c9 -8 16 -27 16 -40 0 -43 -18 -63 -60 -70 -39
-6 -40 -8 -40 -45 0 -28 -4 -39 -15 -39 -12 0 -15 18 -15 105 l0 105 49 0 c32
0 55 -6 65 -16z m171 6 c-3 -5 -24 -10 -46 -10 -38 0 -39 -1 -39 -35 0 -33 2
-35 35 -35 19 0 35 -4 35 -10 0 -5 -16 -10 -35 -10 -34 0 -35 -1 -35 -40 l0
-40 45 0 c25 0 45 -4 45 -10 0 -6 -27 -10 -60 -10 l-60 0 0 105 0 105 61 0
c37 0 58 -4 54 -10z m159 -12 c20 -29 20 -34 -3 -57 -19 -19 -19 -20 5 -68 28
-57 29 -65 8 -61 -9 2 -24 23 -34 48 -14 36 -23 46 -44 48 -25 3 -26 2 -26
-48 0 -37 -4 -50 -12 -48 -9 3 -14 36 -16 106 l-3 102 55 0 c45 0 58 -4 70
-22z m264 10 c19 -19 14 -30 -7 -18 -57 30 -101 -1 -101 -72 0 -76 35 -101
104 -73 14 6 18 5 14 -6 -2 -7 -19 -18 -37 -23 -49 -14 -97 12 -110 61 -13 49
1 106 32 128 26 18 88 20 105 3z m158 -14 c16 -24 16 -27 -3 -52 -19 -25 -19
-28 -2 -57 26 -46 33 -75 17 -75 -8 0 -24 23 -35 50 -16 37 -27 50 -42 50 -15
0 -21 -7 -22 -22 -3 -65 -5 -73 -19 -73 -12 0 -15 16 -16 80 -2 122 -1 125 57
125 41 0 51 -4 65 -26z m137 -57 c17 -43 34 -74 38 -70 4 4 20 40 36 78 22 52
35 71 51 73 26 4 35 -34 28 -128 -5 -84 -5 -80 -16 -80 -5 0 -11 42 -12 93
l-3 92 -39 -93 c-21 -51 -44 -91 -50 -89 -6 2 -27 41 -46 88 l-35 84 -3 -87
c-2 -69 -6 -88 -17 -88 -12 0 -15 20 -15 106 l0 105 26 -3 c23 -3 31 -14 57
-81z"/>
<path d="M570 496 c0 -38 3 -46 18 -46 32 0 54 24 50 55 -3 26 -8 30 -35 33
-33 3 -33 3 -33 -42z"/>
<path d="M890 506 c0 -31 3 -36 23 -36 33 0 49 15 45 41 -2 19 -10 25 -35 27
-32 3 -33 2 -33 -32z"/>
<path d="M1318 517 c-6 -32 1 -47 21 -47 31 0 54 24 47 48 -10 32 -62 31 -68
-1z"/>
</g>
</svg>
