<?xml version="1.0" encoding="utf-8"?>
<!-- Generator: Adobe Illustrator 16.0.0, SVG Export Plug-In . SVG Version: 6.00 Build 0)  -->
<!DOCTYPE svg PUBLIC "-//W3C//DTD SVG 1.1//EN" "http://www.w3.org/Graphics/SVG/1.1/DTD/svg11.dtd">
<svg version="1.1" id="Layer_1" xmlns="http://www.w3.org/2000/svg" xmlns:xlink="http://www.w3.org/1999/xlink" x="0px" y="0px"
	 width="555px" height="555px" viewBox="0 0 555 555" enable-background="new 0 0 555 555" xml:space="preserve">
<image display="none" overflow="visible" enable-background="new    " width="1908" height="948" xlink:href="banner.jpg"  transform="matrix(1 0 0 1 -999 -217)">
</image>
<g>
	<path fill="#F8F8F8" d="M278,43c31.743,0,62.515,6.208,91.46,18.451c27.979,11.834,53.115,28.784,74.71,50.379
		c21.596,21.595,38.545,46.731,50.38,74.71C506.792,215.486,513,246.257,513,278s-6.208,62.516-18.45,91.46
		c-11.835,27.979-28.784,53.115-50.38,74.71c-21.595,21.596-46.729,38.545-74.71,50.38C340.515,506.792,309.743,513,278,513
		s-62.514-6.208-91.46-18.45c-27.979-11.835-53.115-28.784-74.71-50.38c-21.595-21.595-38.545-46.729-50.379-74.71
		C49.208,340.516,43,309.743,43,278s6.208-62.514,18.451-91.46c11.834-27.979,28.784-53.115,50.379-74.71
		c21.595-21.595,46.731-38.545,74.71-50.379C215.486,49.208,246.257,43,278,43 M278,2C125.57,2,2,125.57,2,278
		c0,152.431,123.57,276,276,276c152.431,0,276-123.569,276-276C554,125.57,430.431,2,278,2L278,2z"/>
</g>
<g>
	<path fill="#F8F8F8" d="M278,123c41.669,0,80.844,16.227,110.309,45.691C417.773,198.156,434,237.331,434,279
		s-16.227,80.844-45.691,110.309C358.845,418.774,319.669,435,278,435s-80.844-16.227-110.309-45.691
		C138.227,359.844,122,320.669,122,279s16.227-80.844,45.691-110.309C197.156,139.227,236.331,123,278,123 M278,82
		C169.2,82,81,170.2,81,279s88.2,197,197,197s197-88.2,197-197S386.8,82,278,82L278,82z"/>
</g>
<g>
	<g>
		<path fill="#2A4E96" d="M48.979,540.928c-0.505,0-0.916-0.312-0.918-0.698l-0.633-99.326c-0.002-0.388,0.407-0.702,0.914-0.704
			c0.001,0,0.003,0,0.004,0c0.505,0,0.916,0.312,0.918,0.697l0.633,99.326c0.002,0.388-0.407,0.703-0.914,0.705
			C48.982,540.928,48.98,540.928,48.979,540.928z"/>
	</g>
	<g>
		<path fill="#2A4E96" d="M116.738,540.685c-0.505,0-0.916-0.312-0.918-0.698l-0.634-99.325c-0.002-0.388,0.407-0.703,0.914-0.705
			c0.001,0,0.003,0,0.004,0c0.506,0,0.916,0.312,0.919,0.698l0.633,99.325c0.002,0.388-0.406,0.703-0.913,0.705
			C116.741,540.685,116.739,540.685,116.738,540.685z"/>
	</g>
	<g>
		<path fill="#2A4E96" d="M116.774,471.809H48.35c-0.51,0-0.923-0.413-0.923-0.923c0-0.511,0.413-0.923,0.923-0.923h68.424
			c0.509,0,0.923,0.412,0.923,0.923C117.697,471.396,117.283,471.809,116.774,471.809z"/>
	</g>
	<g>
		<path fill="#2A4E96" d="M117.093,506.8H48.35c-0.51,0-0.923-0.413-0.923-0.923s0.413-0.923,0.923-0.923h68.743
			c0.51,0,0.923,0.413,0.923,0.923S117.603,506.8,117.093,506.8z"/>
	</g>
	<g>
		<rect x="46.166" y="438.991" fill="#295A6E" width="73.749" height="2.975"/>
		<path fill="#295A6E" d="M120.26,442.313h-74.44v-3.668h74.44V442.313z M46.512,441.62h73.056v-2.283H46.512V441.62z"/>
	</g>
</g>
<g id="XMLID_74_">
	<rect id="XMLID_93_" x="1019.267" y="98" fill="#C2D9F9" width="7.011" height="52.65"/>
	<polygon id="XMLID_92_" fill="#C2D9F9" points="1057.914,104.931 1073.417,134.744 1083.308,134.744 1064.8,101.922 	"/>
	<rect id="XMLID_91_" x="1022.183" y="95.084" fill="#C2D9F9" width="33.69" height="7.011"/>
	<path id="XMLID_90_" fill="none" stroke="#C2D9F9" stroke-miterlimit="10" d="M1053.992,105.729
		c-8.087,20.843-22.447,22.318-22.447-4.161"/>
	<path id="XMLID_89_" fill="none" stroke="#C2D9F9" stroke-miterlimit="10" d="M1056.793,101.568
		c-1.019,23.505-15.414,23.055-13.915-1.087"/>
	<g id="XMLID_84_">
		<g>
			<g id="XMLID_37_">
				<polygon id="XMLID_38_" fill="#C2D9F9" points="992.997,196.94 984.121,196.94 984.121,167.405 1012.426,155.875 
					1018.193,156.679 987.877,169.477 987.877,193.185 992.997,193.185 				"/>
			</g>
			<g id="XMLID_35_">
				<polygon id="XMLID_36_" fill="#C2D9F9" points="1052.546,196.94 1061.423,196.94 1061.423,167.405 1033.118,155.875 
					1028.062,157.126 1057.668,169.477 1057.668,193.185 1052.546,193.185 				"/>
			</g>
		</g>
	</g>
	<rect id="XMLID_83_" x="1010.326" y="150.65" fill="#C2D9F9" width="24.892" height="6.813"/>
	<circle id="XMLID_78_" fill="#C2D9F9" cx="1022.298" cy="98" r="9.914"/>
	<circle id="XMLID_77_" fill="#75ABD8" cx="1022.298" cy="98" r="3.922"/>
	<circle id="XMLID_76_" fill="#C2D9F9" cx="1057.915" cy="98" r="9.915"/>
	<circle id="XMLID_75_" fill="#75ABD8" cx="1057.915" cy="98" r="3.922"/>
</g>
<path fill="#C7D2F2" d="M518.761,112.586l-42.197-13.313l-17.254,54.688c-2.817,8.934,2.139,18.46,11.073,21.279l42.197,13.312
	l17.253-54.688C532.651,124.931,527.694,115.404,518.761,112.586z M466.731,158.414l-0.682-7.376l2.734-0.255l0.359,3.865
	l7.828-2.777l0.917,2.59L466.731,158.414z M472.01,141.682l-0.682-7.375l2.736-0.256l0.357,3.865l7.828-2.777l0.916,2.59
	L472.01,141.682z M477.288,124.95l-0.679-7.376l2.733-0.254l0.357,3.863l7.827-2.777l0.917,2.59L477.288,124.95z M512.613,170.01
	l-30.887-9.745l1.166-3.694l30.885,9.743L512.613,170.01z M517.892,153.277l-30.887-9.745l1.166-3.694l30.885,9.743L517.892,153.277
	z M523.17,136.545l-30.887-9.744l1.166-3.695l30.887,9.744L523.17,136.545z"/>
<g>
	<g>
		<g>
			<g>
				<g>
					<rect x="244.869" y="412.555" fill="#253E8E" width="76.337" height="21.438"/>
					<linearGradient id="SVGID_1_" gradientUnits="userSpaceOnUse" x1="97.6577" y1="296.7676" x2="468.4238" y2="296.7676">
						<stop  offset="0" style="stop-color:#ACB1F4"/>
						<stop  offset="1" style="stop-color:#A3B0F5"/>
					</linearGradient>
					<path fill="url(#SVGID_1_)" d="M468.424,188.84v215.854c0,5.214-4.235,9.45-9.449,9.45H107.097
						c-5.213,0-9.439-4.236-9.439-9.45V188.84c0-5.225,4.214-9.45,9.428-9.45h351.901
						C464.211,179.39,468.424,183.615,468.424,188.84z"/>
					<path fill="#253E8E" d="M468.424,188.84v203.978H97.647V188.84c0-5.225,4.224-9.45,9.427-9.45h351.912
						C464.211,179.39,468.424,183.615,468.424,188.84z"/>
					<rect x="106.763" y="188.842" fill="#FFFFFF" width="352.546" height="194.002"/>
					<path fill="#3454A3" d="M345.285,438.636H220.79v-2.455c0-2.347,1.903-4.251,4.25-4.251h115.993
						c2.348,0,4.252,1.904,4.252,4.251V438.636z"/>
				</g>
			</g>
		</g>
	</g>
	<g>
		<path fill="none" stroke="#253E8E" stroke-miterlimit="10" d="M222.523,249.938h-99.984c-0.575,0-1.039-0.466-1.039-1.039v-48.393
			c0-0.574,0.464-1.04,1.039-1.04h99.984c0.575,0,1.041,0.465,1.041,1.04v48.393C223.563,249.473,223.098,249.938,222.523,249.938z"
			/>
		<g>
			<g>
				<path fill="#253E8E" d="M151.069,215.272h-10.611v7.008h9.41v4.445h-9.41v7.408h10.611v4.564h-16.218v-27.99h16.218V215.272z"/>
				<path fill="#253E8E" d="M170.649,210.748c6.727,0,10.091,3.885,10.091,8.569c0,3.404-1.882,6.847-6.368,8.048l6.688,11.332
					h-6.488l-6.166-10.892h-2.643v10.892h-5.605v-27.95H170.649z M170.448,215.393h-4.684v8.209h4.684
					c3.124,0,4.525-1.642,4.525-4.164C174.974,216.955,173.572,215.393,170.448,215.393z"/>
				<path fill="#253E8E" d="M200.119,227.966h-4.684v10.731h-5.606v-27.95h10.291c6.728,0,10.091,3.804,10.091,8.649
					C210.21,223.642,207.328,227.966,200.119,227.966z M199.88,223.442c3.163,0,4.563-1.562,4.563-4.044
					c0-2.563-1.4-4.084-4.563-4.084h-4.445v8.129H199.88z"/>
			</g>
		</g>
	</g>
	<path fill="#E2E6F7" d="M222.606,261.57h-100.15c-0.528,0-0.957,0.428-0.957,0.958v104.538c0,0.527,0.428,0.956,0.957,0.956h100.15
		c0.528,0,0.958-0.429,0.958-0.956V262.527C223.563,261.998,223.134,261.57,222.606,261.57z"/>
	<path fill="#E2E6F7" d="M441.142,272.313H236.64c-1.372,0-2.484,1.112-2.484,2.483v90.743c0,1.369,1.112,2.482,2.484,2.482h204.502
		c1.371,0,2.483-1.113,2.483-2.482v-90.743C443.625,273.425,442.513,272.313,441.142,272.313z"/>
	<g>
		<path fill="none" stroke="#253E8E" stroke-miterlimit="10" d="M249.11,358.333c0,0,15.979,5.981,25.231-4.486
			c9.251-10.469,12.194-31.405,21.446-33.649c9.252-2.242,15.139,20.937,34.062,20.937c18.924,0,22.708-33.271,35.324-33.271
			c12.615,0,17.24,19.438,29.856,19.438c12.614,0,29.436-37.758,29.436-37.758"/>
		<linearGradient id="SVGID_2_" gradientUnits="userSpaceOnUse" x1="421.5205" y1="289.2617" x2="428.6699" y2="289.2617">
			<stop  offset="0.0427" style="stop-color:#7B8BFF"/>
			<stop  offset="1" style="stop-color:#6F80FF"/>
		</linearGradient>
		<ellipse fill="url(#SVGID_2_)" cx="425.095" cy="289.261" rx="3.575" ry="3.179"/>
		<linearGradient id="SVGID_3_" gradientUnits="userSpaceOnUse" x1="361.3877" y1="307.5801" x2="368.5361" y2="307.5801">
			<stop  offset="0.0427" style="stop-color:#7B8BFF"/>
			<stop  offset="1" style="stop-color:#6F80FF"/>
		</linearGradient>
		<ellipse fill="url(#SVGID_3_)" cx="364.962" cy="307.58" rx="3.574" ry="3.179"/>
		<linearGradient id="SVGID_4_" gradientUnits="userSpaceOnUse" x1="292.2129" y1="320.1992" x2="299.3623" y2="320.1992">
			<stop  offset="0.0427" style="stop-color:#7B8BFF"/>
			<stop  offset="1" style="stop-color:#6F80FF"/>
		</linearGradient>
		<ellipse fill="url(#SVGID_4_)" cx="295.788" cy="320.197" rx="3.575" ry="3.179"/>
	</g>
	<g>
		<g>
			<g>
				<path fill="#253E8E" d="M398.641,231.063c0,3.977,1.647,7.57,4.303,10.122l-9.342,9.344c-5.041-4.95-8.17-11.84-8.17-19.466
					c0-15.072,12.216-27.286,27.287-27.286v13.209C404.946,216.986,398.641,223.291,398.641,231.063z"/>
				<linearGradient id="SVGID_5_" gradientUnits="userSpaceOnUse" x1="412.7188" y1="217.4204" x2="440.0049" y2="217.4204">
					<stop  offset="0" style="stop-color:#ACB1F4"/>
					<stop  offset="1" style="stop-color:#A3B0F5"/>
				</linearGradient>
				<path fill="url(#SVGID_5_)" d="M440.005,231.063h-13.209c0-7.772-6.306-14.077-14.077-14.077v-13.209
					C427.791,203.777,440.005,215.992,440.005,231.063z"/>
				<path fill="#E2E6F7" d="M440.005,231.063c0,15.072-12.214,27.286-27.286,27.286c-7.445,0-14.196-2.983-19.117-7.82l9.342-9.344
					c2.538,2.447,5.979,3.956,9.775,3.956c7.771,0,14.077-6.305,14.077-14.078H440.005z"/>
			</g>
		</g>
		<g>
			<linearGradient id="SVGID_6_" gradientUnits="userSpaceOnUse" x1="333.502" y1="219.6079" x2="376.4541" y2="219.6079">
				<stop  offset="0" style="stop-color:#ACB1F4"/>
				<stop  offset="1" style="stop-color:#A3B0F5"/>
			</linearGradient>
			<rect x="333.502" y="218.228" fill="url(#SVGID_6_)" width="42.952" height="2.761"/>
			<linearGradient id="SVGID_7_" gradientUnits="userSpaceOnUse" x1="333.502" y1="231.0635" x2="376.4541" y2="231.0635">
				<stop  offset="0" style="stop-color:#ACB1F4"/>
				<stop  offset="1" style="stop-color:#A3B0F5"/>
			</linearGradient>
			<rect x="333.502" y="229.684" fill="url(#SVGID_7_)" width="42.952" height="2.76"/>
			<linearGradient id="SVGID_8_" gradientUnits="userSpaceOnUse" x1="333.502" y1="242.5195" x2="376.4541" y2="242.5195">
				<stop  offset="0" style="stop-color:#ACB1F4"/>
				<stop  offset="1" style="stop-color:#A3B0F5"/>
			</linearGradient>
			<rect x="333.502" y="241.139" fill="url(#SVGID_8_)" width="42.952" height="2.76"/>
		</g>
	</g>
	<g>
		<g>
			<g>
				<linearGradient id="SVGID_9_" gradientUnits="userSpaceOnUse" x1="139.8447" y1="274.9834" x2="215.9658" y2="274.9834">
					<stop  offset="0" style="stop-color:#ACB1F4"/>
					<stop  offset="1" style="stop-color:#A3B0F5"/>
				</linearGradient>
				<rect x="139.845" y="274.029" fill="url(#SVGID_9_)" width="76.121" height="1.908"/>
				<linearGradient id="SVGID_10_" gradientUnits="userSpaceOnUse" x1="139.8447" y1="279.9219" x2="196.6802" y2="279.9219">
					<stop  offset="0" style="stop-color:#ACB1F4"/>
					<stop  offset="1" style="stop-color:#A3B0F5"/>
				</linearGradient>
				<rect x="139.845" y="278.968" fill="url(#SVGID_10_)" width="56.835" height="1.908"/>
			</g>
			<linearGradient id="SVGID_11_" gradientUnits="userSpaceOnUse" x1="126.7856" y1="277.5278" x2="136.3643" y2="277.5278">
				<stop  offset="0" style="stop-color:#ACB1F4"/>
				<stop  offset="1" style="stop-color:#A3B0F5"/>
			</linearGradient>
			<rect x="126.786" y="274.029" fill="url(#SVGID_11_)" width="9.579" height="6.997"/>
		</g>
		<g>
			<g>
				<linearGradient id="SVGID_12_" gradientUnits="userSpaceOnUse" x1="139.8447" y1="293.6182" x2="215.9658" y2="293.6182">
					<stop  offset="0.0427" style="stop-color:#7B8BFF"/>
					<stop  offset="1" style="stop-color:#6F80FF"/>
				</linearGradient>
				<rect x="139.845" y="292.664" fill="url(#SVGID_12_)" width="76.121" height="1.908"/>
				<linearGradient id="SVGID_13_" gradientUnits="userSpaceOnUse" x1="139.8447" y1="298.5566" x2="196.6802" y2="298.5566">
					<stop  offset="0.0427" style="stop-color:#7B8BFF"/>
					<stop  offset="1" style="stop-color:#6F80FF"/>
				</linearGradient>
				<rect x="139.845" y="297.603" fill="url(#SVGID_13_)" width="56.835" height="1.908"/>
			</g>
			<linearGradient id="SVGID_14_" gradientUnits="userSpaceOnUse" x1="126.7856" y1="296.1621" x2="136.3643" y2="296.1621">
				<stop  offset="0.0427" style="stop-color:#7B8BFF"/>
				<stop  offset="1" style="stop-color:#6F80FF"/>
			</linearGradient>
			<rect x="126.786" y="292.664" fill="url(#SVGID_14_)" width="9.579" height="6.997"/>
		</g>
		<g>
			<g>
				<linearGradient id="SVGID_15_" gradientUnits="userSpaceOnUse" x1="139.8447" y1="312.251" x2="215.9658" y2="312.251">
					<stop  offset="0" style="stop-color:#ACB1F4"/>
					<stop  offset="1" style="stop-color:#A3B0F5"/>
				</linearGradient>
				<rect x="139.845" y="311.297" fill="url(#SVGID_15_)" width="76.121" height="1.908"/>
				<linearGradient id="SVGID_16_" gradientUnits="userSpaceOnUse" x1="139.8447" y1="317.1895" x2="196.6802" y2="317.1895">
					<stop  offset="0" style="stop-color:#ACB1F4"/>
					<stop  offset="1" style="stop-color:#A3B0F5"/>
				</linearGradient>
				<rect x="139.845" y="316.235" fill="url(#SVGID_16_)" width="56.835" height="1.908"/>
			</g>
			<linearGradient id="SVGID_17_" gradientUnits="userSpaceOnUse" x1="126.7856" y1="314.7949" x2="136.3643" y2="314.7949">
				<stop  offset="0" style="stop-color:#ACB1F4"/>
				<stop  offset="1" style="stop-color:#A3B0F5"/>
			</linearGradient>
			<rect x="126.786" y="311.297" fill="url(#SVGID_17_)" width="9.579" height="6.997"/>
		</g>
		<g>
			<g>
				<rect x="139.845" y="329.932" fill="#253E8E" width="76.121" height="1.908"/>
				<rect x="139.845" y="334.87" fill="#253E8E" width="56.835" height="1.908"/>
			</g>
			<rect x="126.786" y="329.932" fill="#253E8E" width="9.579" height="6.997"/>
		</g>
		<g>
			<g>
				<linearGradient id="SVGID_18_" gradientUnits="userSpaceOnUse" x1="139.8447" y1="349.5186" x2="215.9658" y2="349.5186">
					<stop  offset="0.0427" style="stop-color:#7B8BFF"/>
					<stop  offset="1" style="stop-color:#6F80FF"/>
				</linearGradient>
				<rect x="139.845" y="348.564" fill="url(#SVGID_18_)" width="76.121" height="1.908"/>
				<linearGradient id="SVGID_19_" gradientUnits="userSpaceOnUse" x1="139.8447" y1="354.457" x2="196.6802" y2="354.457">
					<stop  offset="0.0427" style="stop-color:#7B8BFF"/>
					<stop  offset="1" style="stop-color:#6F80FF"/>
				</linearGradient>
				<rect x="139.845" y="353.503" fill="url(#SVGID_19_)" width="56.835" height="1.908"/>
			</g>
			<linearGradient id="SVGID_20_" gradientUnits="userSpaceOnUse" x1="126.7856" y1="352.0625" x2="136.3643" y2="352.0625">
				<stop  offset="0.0427" style="stop-color:#7B8BFF"/>
				<stop  offset="1" style="stop-color:#6F80FF"/>
			</linearGradient>
			<rect x="126.786" y="348.564" fill="url(#SVGID_20_)" width="9.579" height="6.997"/>
		</g>
	</g>
	<g>
		<g>
			<g>
				<g>
					<linearGradient id="SVGID_21_" gradientUnits="userSpaceOnUse" x1="249.9722" y1="217.979" x2="249.9722" y2="242.3715">
						<stop  offset="0.0427" style="stop-color:#7B8BFF"/>
						<stop  offset="1" style="stop-color:#6F80FF"/>
					</linearGradient>
					<rect x="248.333" y="232.17" fill="url(#SVGID_21_)" width="3.277" height="15.648"/>
				</g>
			</g>
			<g>
				<g>
					<rect x="253.013" y="224.983" fill="#253E8E" width="3.277" height="22.835"/>
				</g>
			</g>
		</g>
		<g>
			<g>
				<g>
					<linearGradient id="SVGID_22_" gradientUnits="userSpaceOnUse" x1="268.3989" y1="217.979" x2="268.3989" y2="242.3715">
						<stop  offset="0.0427" style="stop-color:#7B8BFF"/>
						<stop  offset="1" style="stop-color:#6F80FF"/>
					</linearGradient>
					<rect x="266.76" y="221.927" fill="url(#SVGID_22_)" width="3.277" height="25.891"/>
				</g>
			</g>
			<g>
				<g>
					<rect x="271.44" y="219.201" fill="#253E8E" width="3.277" height="28.617"/>
				</g>
			</g>
		</g>
		<g>
			<g>
				<g>
					<linearGradient id="SVGID_23_" gradientUnits="userSpaceOnUse" x1="286.8262" y1="217.978" x2="286.8262" y2="242.3711">
						<stop  offset="0.0427" style="stop-color:#7B8BFF"/>
						<stop  offset="1" style="stop-color:#6F80FF"/>
					</linearGradient>
					<rect x="285.188" y="230.889" fill="url(#SVGID_23_)" width="3.277" height="16.929"/>
				</g>
			</g>
			<g>
				<g>
					<rect x="289.867" y="215.153" fill="#253E8E" width="3.277" height="32.665"/>
				</g>
			</g>
		</g>
		<g>
			<g>
				<g>
					<linearGradient id="SVGID_24_" gradientUnits="userSpaceOnUse" x1="305.2529" y1="217.9785" x2="305.2529" y2="242.3713">
						<stop  offset="0.0427" style="stop-color:#7B8BFF"/>
						<stop  offset="1" style="stop-color:#6F80FF"/>
					</linearGradient>
					<rect x="303.614" y="210.197" fill="url(#SVGID_24_)" width="3.277" height="37.621"/>
				</g>
			</g>
			<g>
				<g>
					<rect x="308.294" y="219.243" fill="#253E8E" width="3.277" height="28.575"/>
				</g>
			</g>
		</g>
	</g>
	<g>
		<rect x="248.922" y="250.642" fill="#E2E6F7" width="62.062" height="1.247"/>
		<rect x="248.922" y="254.991" fill="#E2E6F7" width="62.062" height="1.246"/>
	</g>
</g>
<g>
	<path fill="#FFB27D" d="M300.922,216.394c-0.46,0.527-0.519,1.117-0.291,1.746c0,0.002,0.002,0.007,0.005,0.008
		c0.421,1.164,1.813,2.464,3.429,3.762c0.206,0.167,0.391,0.319,0.551,0.459c0.041,0.037,0.084,0.073,0.123,0.11
		c0.033,0.029,0.064,0.059,0.096,0.086c1.507,1.39,0.939,1.707,3.646,4.527c3.088,3.212,5.214,3.27,5.818,2.977
		c0.512-0.248-0.527-1.952-1.68-3.867c-0.055-0.092-0.11-0.186-0.168-0.279c-0.152-0.254-0.305-0.513-0.458-0.77
		c-1.35-2.304-1.003-3.386-0.683-6.815c0.26-2.789,4.336-15.572,4.336-15.572l-5.916-1.019c0,0-1.782,10.18-3.746,11.748
		c-1.049,0.835-2.225,0.845-3.233,1.465c-0.071,0.043-0.142,0.087-0.21,0.133C301.968,215.473,301.383,215.865,300.922,216.394z"/>
	<path fill="#233862" d="M300.922,216.394c-0.46,0.527-0.519,1.117-0.291,1.746c0,0.002,0.002,0.007,0.005,0.008
		c0.516,1.163,1.872,2.456,3.435,3.75c0.204,0.17,0.384,0.325,0.545,0.471c0.041,0.037,0.084,0.073,0.123,0.11
		c0.033,0.029,0.064,0.059,0.096,0.086c1.507,1.39,0.939,1.707,3.646,4.527c3.088,3.212,5.214,3.27,5.818,2.977
		c0.512-0.248-0.527-1.952-1.68-3.867c-0.601-0.22-3.393-1.354-5.504-4.056c-1.858-2.372-3.098-5.42-4.364-7.186
		c-0.071,0.043-0.142,0.087-0.21,0.133C301.968,215.473,301.383,215.865,300.922,216.394z"/>
	<path fill="#FFB27D" d="M348.631,212.698c0.365,1.826,2.969,1.522,5.877,0.812c2.91-0.711,2.219,0.134,6.357-0.325
		c4.139-0.458,5.395-2.001,5.52-2.617c0.113-0.546-1.933-0.739-4.126-0.991c-0.276-0.031-0.554-0.065-0.83-0.099
		c-2.478-0.311-4.291-1.909-6.541-3.222c-2.132-1.244-5.312-6.31-5.312-6.31l-5.678,0.45c0,0,2.979,4.525,4.133,6.492
		c0.677,1.157,0.641,2.688,0.557,3.869C348.544,211.399,348.502,212.055,348.631,212.698z"/>
	<path fill="#233862" d="M354.508,213.51c2.91-0.711,2.219,0.134,6.357-0.325c4.139-0.458,5.395-2.001,5.52-2.617
		c0.113-0.546-1.933-0.739-4.126-0.991l-0.021,0.042c0,0-2.482,1.76-5.928,1.843c-2.809,0.068-5.783-0.736-7.723-0.705
		c-0.044,0.643-0.086,1.298,0.043,1.942C348.996,214.524,351.6,214.22,354.508,213.51z"/>
	<path fill="#2C3A64" d="M326.876,176.399l-5.308,14.28l-6.928,18.646c0,0-1.881,0.182-3.681-0.336
		c-1.657-0.479-3.56-1.732-3.56-1.732s1.924-20.021,5.512-31.513c0.92-2.95,1.951-5.336,3.088-6.679
		C321.564,162.489,326.876,176.399,326.876,176.399z"/>
	<path fill="#2F539B" d="M321.48,153.72c-3.477-1.122-13.393,0.319-23.354,2.269l-2.085-3.44l-21.516-1.681
		c0,0-7.1,15.745-3.213,25.777c0.571,1.474,1.707,2.42,3.642,2.451c0.001,0.001,0.313-0.001,0.314,0c0,0,12.806-0.008,16.965-0.008
		c10.699,0,22.645-7.355,24.189-7.664c2.529-0.506,3.541,4.552,6.07,9.864s23.774,23.522,23.774,23.522s3.265,0.032,4.614-0.474
		c1.45-0.544,1.98-1.25,1.98-1.25S329.32,156.249,321.48,153.72z"/>
	<path fill="#141414" d="M288.912,87.048c-3.016-0.775-7.142-0.002-7.826,0.064c-8.187,0.806-10.937,9.939-9.698,17.024
		c1.144,6.539-2.173,8.348-6.017,13.512c-7.706,10.355-2.669,19.087,3.412,21.338c3.648,1.351,8.714-2.057,8.714-2.057
		c0.091,0.037,15.917-10.368,22.405-16.234C310.707,116.469,296.595,89.025,288.912,87.048z"/>
	<path fill="#FFB27D" d="M290.121,117c0.215,0.758-3.366,2.15-6.1,1.638c-2.571-0.479-5.454-3.491-4.859-3.773
		c0.984-0.467,1.646-1.63,1.107-7.918l0.49,0.056l8.228,0.939c0,0,0.024,2.563,0.216,4.964
		C289.363,114.921,289.771,115.765,290.121,117z"/>
	<path fill="#ED975D" d="M288.987,107.941c0,0,0.024,2.563,0.216,4.964c-4.541,0.244-7.275-3.693-8.443-5.903L288.987,107.941z"/>
	<path fill="#FFB27D" d="M290.687,110.09c0,0-10.705,1.056-11.26-5.621c-0.556-6.677-2.311-11.037,4.501-11.994
		c6.812-0.956,8.354,1.481,9.08,3.665S293.457,109.644,290.687,110.09z"/>
	<path fill="#121314" d="M289.54,91.422c0,0-1.349,8.156-7.445,10.092c-4.448,1.412-6.462,0.481-6.462,0.481
		s2.141-2.839,2.902-6.786c0.224-1.163,1.051-2.12,2.177-2.491C283.872,91.679,287.702,88.836,289.54,91.422z"/>
	<path fill="#2B478B" d="M287.522,93.163c0,0,2.018,0.449,3.806,3.052c0.977,1.423,2.107,5.009,1.915,6.597
		c0,0,1.874-7.549-0.858-10.357C289.488,89.477,287.522,93.163,287.522,93.163z"/>
	<path fill="#F99746" d="M270.845,138.933c0.191,0.811,0.354,1.557,0.487,2.245c0.218,1.11,0.368,2.068,0.473,2.912
		c0.327,2.633,0.229,4.193,0.45,5.9c0.123,0.954,0.348,1.955,0.801,3.212c0.443,1.223,12.075,2.313,18.694,1.874
		c2.102-0.136,3.703-0.433,4.271-0.923c2.361-2.05,2.125,2.459,2.449-19.12c0.156-10.526-8.932-19.9-8.932-19.9
		s-0.726,4.497-9.738-0.855c-0.32-0.188-3.871,5.069-7.287,11.541C268.75,132.969,269.782,134.481,270.845,138.933z"/>
	<path fill="#2B478B" d="M321.568,190.679l-6.928,18.646c0,0-1.881,0.182-3.681-0.336c-1.657-0.479-3.56-1.732-3.56-1.732
		s1.924-20.021,5.512-31.513L321.568,190.679z"/>
	<path fill="#F99746" d="M289.54,115.131c0,0,9.273,1.572,10.362,5.565c1.09,3.993,8.613,26.324,8.613,26.324
		s-5.83,1.99-8.008-0.188c-2.178-2.178-7.578-20.207-7.578-20.207L289.54,115.131z"/>
	<path fill="#FFFFFF" d="M288.216,106.153c0,0,0.448,1.098,1.634,1.098s1.506-0.178,1.73-0.429s0.446-0.734,0.446-0.734
		S290.063,105.701,288.216,106.153z"/>
	<path fill="#ED7D2B" d="M271.805,144.09c0.327,2.633,0.229,4.193,0.45,5.9c8.421,0.027,19.679-6.503,19.679-6.503L271.805,144.09z"
		/>
	<path fill="#ED7D2B" d="M291.934,137.965c0,0-13.117-0.392-15.329-7.848c-2.429-8.191-5.15,3.369-5.15,3.369l1.448,7.378h14.392
		L291.934,137.965z"/>
	<g>
		<path fill="#739AF0" d="M314.803,117.733l-0.709-1.755c-0.761-1.883-2.588-3.115-4.617-3.115h-13.078v8.297v35.426h54.097V121.16
			h-30.612C317.648,121.16,315.639,119.804,314.803,117.733z"/>
		<g>
			<path fill="#FFFFFF" d="M304.559,139.451v-3.152l11.055-4.842v3.22l-7.72,3.175l7.72,3.175v3.267L304.559,139.451z"/>
			<path fill="#FFFFFF" d="M327.102,127.688h2.946l-10.118,21.15h-2.946L327.102,127.688z"/>
			<path fill="#FFFFFF" d="M342.336,136.299v3.152l-11.055,4.842v-3.221l7.72-3.175l-7.72-3.175v-3.266L342.336,136.299z"/>
		</g>
	</g>
	<path fill="#FFB27D" d="M291.932,139.693l0.949-1.49c0,0,0.752-0.245,1.805-0.984c1.254-0.88,1.088-2.198,1.713-2.058l0.009,2.896
		l-0.067,0.01c2.688,0.718,5.831-0.062,5.895,0.607c0.173,1.841-1.251,2.67-2.444,3.247c-0.913,0.441-1.951,1.104-3.601,0.59
		c-1.207-0.375-3.104-0.757-3.104-0.757L291.932,139.693z"/>
	<path fill="#F99746" d="M279.799,114.28c0,0-8.515,0.557-10.644,3.878c-2.129,3.321-4.769,20.183-3.662,25.974
		c1.107,5.791,28.376-1.107,28.376-1.107L293,138c0,0-15.738,0.091-16.635-1.959C275.173,133.316,279.799,114.28,279.799,114.28z"/>
	<path fill="#FFB27D" d="M320.904,121.142c-0.073,0.221,1.281,2.452,3.214,2.064c1.206-0.242,2.773-2.838,1.396-3.41
		C323.217,118.841,321.1,120.552,320.904,121.142z"/>
</g>
<g>
	<path fill="#2A4E96" d="M475.532,536.328L475.532,536.328c-1.189,0.007-2.438-0.854-2.789-1.921l-71.683-218.258
		c-0.351-1.067,0.329-1.939,1.52-1.946l0,0c1.189-0.006,2.438,0.854,2.789,1.922l71.683,218.257
		C477.402,535.45,476.723,536.321,475.532,536.328z"/>
	<path fill="#2A4E96" d="M533.305,535.994L533.305,535.994c-1.19,0.007-2.439-0.854-2.79-1.921l-71.683-218.259
		c-0.351-1.067,0.33-1.938,1.52-1.945l0,0c1.189-0.007,2.438,0.854,2.789,1.921l71.684,218.258
		C535.175,535.116,534.494,535.987,533.305,535.994z"/>
	<path fill="#2A4E96" d="M471.1,346.227l-58.013,0.336c-1.119,0.007-2.304-0.809-2.634-1.813l0,0
		c-0.329-1.004,0.316-1.831,1.435-1.837l58.013-0.336c1.119-0.006,2.304,0.81,2.634,1.814l0,0
		C472.863,345.395,472.219,346.221,471.1,346.227z"/>
	<path fill="#2A4E96" d="M483.615,384.334l-58.013,0.336c-1.119,0.007-2.304-0.81-2.634-1.813l0,0
		c-0.329-1.004,0.315-1.831,1.435-1.837l58.013-0.336c1.119-0.007,2.305,0.81,2.634,1.813l0,0
		C485.379,383.501,484.734,384.328,483.615,384.334z"/>
	<path fill="#2A4E96" d="M495.67,421.036l-58.014,0.335c-1.118,0.007-2.304-0.809-2.633-1.813l0,0
		c-0.33-1.005,0.315-1.831,1.434-1.838l58.014-0.336c1.118-0.006,2.304,0.811,2.633,1.814l0,0
		C497.434,420.203,496.788,421.029,495.67,421.036z"/>
	<path fill="#2A4E96" d="M509.239,462.354l-58.013,0.335c-1.119,0.007-2.304-0.81-2.633-1.813l0,0
		c-0.33-1.004,0.315-1.831,1.434-1.837l58.013-0.336c1.119-0.007,2.304,0.81,2.634,1.813l0,0
		C511.003,461.521,510.358,462.348,509.239,462.354z"/>
	<path fill="#2A4E96" d="M523.443,505.6l-58.014,0.336c-1.119,0.007-2.304-0.81-2.633-1.813l0,0
		c-0.33-1.004,0.315-1.831,1.434-1.837l58.014-0.336c1.118-0.007,2.304,0.81,2.633,1.813l0,0
		C525.207,504.767,524.562,505.594,523.443,505.6z"/>
</g>
<g>
	<path fill="#2A4E96" d="M427.489,323.673L427.489,323.673c-0.49,0.095-0.969-0.229-1.063-0.719l-1-5.167
		c-0.095-0.49,0.229-0.968,0.718-1.063l0,0c0.489-0.095,0.968,0.229,1.063,0.718l1,5.168
		C428.302,323.1,427.979,323.578,427.489,323.673z"/>
	
		<rect x="424.867" y="307.94" transform="matrix(0.9816 -0.1907 0.1907 0.9816 -51.6472 86.8039)" fill="#2A4E96" width="0.625" height="7.607"/>
	<path fill="#FFB27D" d="M424.766,265.914c0,0-0.592-5.144-1.838-7.11c-1.247-1.966-5.958-3.229-6.256-2.94
		c-0.923,0.894,2.725,4.053,2.868,5.217c0.143,1.164-1.853,0.359-0.895,2.629c0.81,1.917,3.476,4.403,3.476,4.403L424.766,265.914z"
		/>
	<path fill="#E58638" d="M422.493,265.341c1.719-1.349,2.084-1.323,2.084-1.323s15.894,13.77,17.441,14.996
		c1.547,1.227,25.419,8.148,25.419,8.148l3.793,19.406c0,0-32.302-15.602-36.16-18.785c-6.379-5.262-14.427-19.986-14.427-19.986
		S421.144,266.4,422.493,265.341z"/>
	<path fill="#163560" d="M467.95,451.844c0,0-0.273,6.632-1.548,8.244l-17.717,0.103c0.124-0.684,0.198-2.265,2.648-2.693
		c3.096-0.538,6.731-2.698,8.604-6.79C461.912,446.402,467.95,451.844,467.95,451.844z"/>
	<path fill="#163560" d="M502.719,450.887c0,0,1.235,8.812-0.442,8.966c-0.223,0.02-7.14,0.132-10.135,0.182
		c-3.522,0.059-9.31-0.065-9.31-0.065c-0.728,0.03-1.205-0.757-0.834-1.385c0.406-0.688,1.183-1.424,2.661-1.707
		c3.085-0.595,8.228-2.86,10.03-6.984C496.586,445.555,502.719,450.887,502.719,450.887z"/>
	<path fill="#233862" d="M458.737,360.595c0,0,4.927,17.239,19.046,47.173c14.119,29.936,14.729,44.362,14.729,44.362
		s2.138,0.756,4.973,0.454c3.068-0.328,5.233-1.697,5.233-1.697s-0.915-35.63-7.584-50.736c-6.669-15.107-8.028-56.445-8.028-56.445
		L458.737,360.595z"/>
	<path fill="#2A4E96" d="M450.829,345.764c0,0-0.393,26.691,4.226,59.465c4.618,32.775,2.459,48.016,2.459,48.016
		s1.224,0.892,4.99,0.877c4.406-0.018,6.665-1.838,6.665-1.838s6.61-32.786,4.715-49.19c-1.896-16.403,9.052-56.29,9.052-56.29
		L450.829,345.764z"/>
	<path fill="#FFB27D" d="M472.654,283.299l-5.217,3.863l-7.539-1.587c0.104-0.688,0.602-3.537,1.055-6.119
		c0.027-0.151,0.055-0.304,0.08-0.452c0.389-2.197,0.724-4.083,0.724-4.083l7.042-3.51l2.626-1.309
		c-0.007,0.046-0.204,2.438-0.231,2.787C470.701,279.087,472.654,283.299,472.654,283.299z"/>
	<path fill="#F99746" d="M487.598,349.06c-1.705,7.802-38.215,4.377-37.738-0.386c0.019-0.158,0.113-2.363,0.245-5.334
		c0.277-6.427,0.698-16.47,0.753-17.254c0-0.014,0.005-0.027,0.005-0.041c0.657-6.632,1.288-13.118,1.329-17.354
		c0.036-3.673,0.544-7.429,1.215-10.84c0.621-3.148,1.384-6.005,2.046-8.232c0.467-1.569,1.339-2.948,2.49-4.032
		c0.821-0.771,1.782-1.393,2.844-1.814c0.291-0.122,0.585-0.223,0.885-0.309c4.296-1.247,10.241-2.789,11.853-2.317
		c4.362,1.283,7.605,8.967,9.9,18.76C487.72,318.234,488.714,343.976,487.598,349.06z"/>
	<path fill="#FCA56B" d="M470.665,272.998c-1.546,2.959-7.309,5.518-9.712,6.458c0.027-0.151,0.055-0.304,0.08-0.452
		c0.389-2.197,0.724-4.083,0.724-4.083l7.042-3.51C470.355,271.387,471.303,271.78,470.665,272.998z"/>
	<path fill="#FFB27D" d="M458.335,274.508c0,0,12.704,3.963,15.051-3.987c2.346-7.95,5.566-12.792-2.446-15.659
		c-8.012-2.867-10.49-0.3-11.92,2.163C457.592,259.488,455.091,273.272,458.335,274.508z"/>
	<path fill="#163560" d="M459.52,256.259c0,0,0.81,9.251,2.723,8.85c1.913-0.401,3.648-0.699,3.368,2.089s-2.933,6.009,2.963,6.502
		c5.896,0.494,14.372-14.712,12.753-17.591C476.652,247.802,452.764,246.126,459.52,256.259z"/>
	<path fill="#E58638" d="M450.104,343.34c0.277-6.427,0.698-16.47,0.753-17.254c0-0.014,0.005-0.027,0.005-0.041l21.567-12.895
		C472.43,313.15,473.265,343.254,450.104,343.34z"/>
	<path fill="#FFB27D" d="M432.961,316.355c0,0-4.383-2.966-5.215-3.224s-3.557-0.539-3.684-0.324
		c-0.126,0.215-0.5,0.873-0.024,1.095c0.478,0.224,1.07,0.146,0.892,0.301c-0.177,0.155-1.969-0.697-2.383,0.216
		c-0.413,0.914-0.776,4.045,1.326,4.993c2.102,0.95,7.292,0.092,7.666,0.201C434.713,320.535,432.961,316.355,432.961,316.355z"/>
	<path fill="#F99746" d="M432.92,315.554c0,0,21.394,3.637,23.289,2.714c3.025-1.473-1.174-23.179-1.174-23.179
		s-0.181-4.919,5.565-6.079c4.993-1.009,9.812,2.731,9.812,2.731s4.38,3.921,3.82,8.269c-1.241,9.639-3.171,29.243-9.618,32.248
		c-8.314,3.876-32.376-10.748-32.376-10.748s-0.801-0.98-0.688-2.803C431.652,317.1,432.92,315.554,432.92,315.554z"/>
	<path fill="#FFB27D" d="M418.545,263.451c0,0-1.369-2.722-1.588-3.232s0.313-0.401,0.841-0.115
		c0.527,0.284,1.246,1.864,2.059,1.674C420.501,261.626,418.545,263.451,418.545,263.451z"/>
</g>
<g>
	<path fill="#E0B59D" d="M74.725,409.343l22.677-0.943l0.993-38.797l-1.566-9.742l-10.473-3.851l-5.421,1.905
		c-3.834,0.73-6.917,4.522-6.78,8.422l1.488,26.468L74.725,409.343z"/>
	<path fill="#E0B59D" d="M83.826,351.23v7.797c0,0,1.648,0.984,5.502,0.984c2.078,0,2.544-0.984,2.544-0.984v-2.882L83.826,351.23z"
		/>
	<g>
		<path fill="#E0B59D" d="M99.512,376.621c-1.009-2.106-16.788,4.733-21.165,6.827c-4.376,2.095-8.842,4.628-7.712,6.991
			c1.13,2.362,5.904,0.473,10.282-1.621C85.294,386.724,100.52,378.729,99.512,376.621z"/>
	</g>
	<path fill="#E0B59D" d="M82.918,345.411c0.018,0.281,0.027,0.547,0.046,0.8c0,0.093-0.01,0.185-0.01,0.284
		c-0.19,4.628,2.78,9.584,7.252,10.256c0,0,0.037,0.011,0.101,0.019c0.036,0,0.091,0.01,0.155,0.01
		c0.957,0.117,4.417,0.401,5.684-0.992c1.484-1.642,2.805-4.646,2.805-6.699c0-2.056-0.374-2.542-0.374-3.37
		c0-0.645,0.348-2.669,0.354-3.549c0.029-4.13-2.75-8.226-7.688-8.226C83.839,333.943,82.709,340.438,82.918,345.411z"/>
	<path fill="#6EBAAD" d="M91.871,358.764"/>
	<path fill="#E0B59D" d="M71.327,391.231c2.552,0.649,7.699-13.828,9.427-20.133c1.729-6.306,1.964-11.583-1.153-12.376
		c-3.115-0.793-5.432,3.953-6.929,10.32C71.174,375.407,68.774,390.582,71.327,391.231z"/>
	<path fill="#E5553E" d="M69.958,380.974c0,0,1.643-23.412,9.934-22.896c8.29,0.517-2.837,24.989-2.837,24.989L69.958,380.974z"/>
	<path fill="#A1B5FF" d="M69.721,381.912l3.627,0.642l0.707,0.13l2.277,0.404l2.658,0.473c0,0,0.472-1.191,0.288-1.493
		c-0.065-0.117-0.68-0.314-1.557-0.55c-0.327-0.079-0.682-0.171-1.074-0.261c-0.917-0.209-1.964-0.432-2.946-0.616
		c-0.13-0.025-0.248-0.038-0.38-0.066c-1.544-0.261-2.893-0.404-3.298-0.273c-0.04,0-0.066,0.025-0.092,0.038
		C69.643,380.615,69.721,381.912,69.721,381.912z"/>
	
		<linearGradient id="SVGID_25_" gradientUnits="userSpaceOnUse" x1="864.8926" y1="376.9609" x2="868.4902" y2="376.9609" gradientTransform="matrix(-1 0 0 1 941.7461 0)">
		<stop  offset="0" style="stop-color:#ACB1F4"/>
		<stop  offset="1" style="stop-color:#A3B0F5"/>
	</linearGradient>
	<path opacity="0.4" fill="url(#SVGID_25_)" d="M73.256,370.835c0,0,0.025,6.336,0.065,9.739c0,0.956,0.013,1.69,0.027,1.979
		l0.707,0.13l2.277,0.404c0.014-0.077,0.027-0.144,0.053-0.223c0.092-0.537,0.184-1.1,0.262-1.608
		c0.17-1.179,0.235-2.173,0.197-2.319C76.673,378.416,73.256,370.835,73.256,370.835z"/>
	<path fill="#E0B59D" d="M93.052,404.853c-2.33,0.742-3.907,4.705-3.448,8.592c0.365,3.091,1.123,7.093,2.635,11.836
		c3.776,11.844,6.19,27.405,9.512,27.697c3.322,0.291,5.167-9.014,2.891-21.622c-2.058-11.396-3.596-26.219-5.98-27.195
		C97.452,403.664,95.09,404.201,93.052,404.853z"/>
	<g>
		<path fill="#E0B59D" d="M103.96,451.418c-9.051-3.174-4.954,38.475-1.917,47.383s4.178-6.352,4.724-21.727
			S107.519,452.668,103.96,451.418z"/>
	</g>
	<polygon fill="#E0B59D" points="100.224,498.709 99.59,493.786 106.332,493.94 106.257,498.905 	"/>
	<path fill="#E0B59D" d="M75.644,407.665c-2.296,0.793-3.68,4.779-3.027,8.646c0.52,3.076,1.478,7.05,3.228,11.749
		c4.369,11.734,7.558,27.204,10.9,27.424c3.34,0.22,4.728-9.103,1.822-21.63c-2.627-11.322-4.903-26.075-7.34-26.999
		C79.992,406.387,77.652,406.975,75.644,407.665z"/>
	<g>
		<path fill="#E0B59D" d="M88.857,452.706c-7.38-6.192-17.563,34.463-17.765,43.911c-0.201,9.445,5.869-4.557,11.63-18.81
			C88.484,463.556,91.762,455.141,88.857,452.706z"/>
	</g>
	<polygon fill="#E0B59D" points="70.155,495.277 71.317,489.856 77.596,492.015 75.919,497.09 	"/>
	<path fill="#253E8E" d="M106.257,498.561c0,0,0.607,1.765,4.282,4.063c3.674,2.299,4.638,1.798,4.721,2.657
		s-15.275,0.153-15.275,0.153l0.239-7.07C100.224,498.363,106.254,498.376,106.257,498.561z"/>
	<path fill="#253E8E" d="M76.112,496.126c0,0,0.219,1.624,1.86,4.654c1.451,2.674,3.429,2.822,3.034,3.492
		c-0.381,0.642-12.625-3.702-12.625-3.702l1.968-6.257C70.349,494.313,76.113,496.131,76.112,496.126z"/>
	<path fill="#253E8E" d="M70.818,489.951l7.088,2.473c0,0,13.025-28.224,13.639-40.004c0.142-2.631-0.047-6.41-0.409-10.681
		c-0.598-6.96-1.685-15.275-2.662-22.112c-1.119-7.732-2.096-13.593-2.096-13.593l-13.891,1.435c0,0-3.056,4.661-0.126,17.592
		c2.93,12.948,8.163,26.593,8.322,27.209C80.84,452.883,74.519,467.618,70.818,489.951z"/>
	<path fill="#DCE8EF" d="M82.835,415.784c0,0,1.559,12.536,8.3,25.955c-0.598-6.96-1.685-15.275-2.662-22.112
		c-0.252-0.897-0.394-1.417-0.394-1.417L82.835,415.784z"/>
	<path fill="#253E8E" d="M100.663,406.172c0,0,7.286,26.01,7.594,43.778c0.308,17.771-1.541,44.373-1.541,44.373H99.11
		c0,0-3.16-31.476-1.23-43.133c0,0-16.124-24.66-15.971-44.998"/>
	<path fill="#E5553E" d="M100.84,406.975c0,0-4.462-19.131-1.002-27.75c0.058-0.144,0.114-0.284,0.161-0.428
		c0.293-0.792,0.51-1.56,0.662-2.285c0.765-3.631,0.037-6.475-0.029-7.658c-0.293-5.234-1.521-7.789-3.09-9.254
		c-1.579-1.465-10.843-4.073-17.175-2.307c-4.226,1.191-9.083,6.173-6.655,21.336c0.416,2.656,1.399,10.028,0.955,16.881
		c-0.389,6.134-2.184,11.959-2.184,11.959L100.84,406.975z"/>
	<path fill="#E0B59D" d="M115.272,385.609c2.015-1.66-6.55-14.261-10.581-19.339c-4.032-5.075-8.117-8.355-10.577-6.328
		c-2.461,2.027-0.021,6.663,4.195,11.591C102.523,376.458,113.257,387.271,115.272,385.609z"/>
	<path fill="#E0B59D" d="M104.067,378.925c0,0,5.623,7.559,10.087,7.595c3.269,0.025,10.333-15.359,10.333-15.359l-5.219-1.652
		c0,0-5.5,8.98-5.624,8.944c-0.123-0.036-3.655-4.746-3.655-4.746L104.067,378.925z"/>
	<g>
		<g>
			<path fill="#E0B59D" d="M128.774,357.895c-2.03-1.115-10.782,13.523-13.096,17.742c-2.313,4.219-4.444,8.842-2.167,10.093
				c2.277,1.247,5.03-3.035,7.344-7.254C123.169,374.256,130.805,359.007,128.774,357.895z"/>
		</g>
		<path fill="#E0B59D" d="M125.057,361.267c0.572-0.616,0.465-1.575,0.385-2.411c-0.085-0.905-0.098-1.818-0.034-2.726
			c0.027-0.396,0.101-0.847,0.435-1.059c0.368-0.232,0.844-0.062,1.259,0.074c0.813,0.264,1.838,0.291,2.38-0.371
			c0.45-0.55,0.564-2.073,1.187-2.419c0.114-0.063,0.393-0.253,0.833,0.039c1.142,0.751,0.976,2.362,0.703,3.564
			c-0.429,1.889-0.929,3.188-2.711,4.543c-0.992,0.755-2.248,1.642-2.926,2.767"/>
	</g>
	
		<linearGradient id="SVGID_26_" gradientUnits="userSpaceOnUse" x1="841.085" y1="373.4912" x2="848.0889" y2="373.4912" gradientTransform="matrix(-1 0 0 1 941.7461 0)">
		<stop  offset="0" style="stop-color:#ACB1F4"/>
		<stop  offset="1" style="stop-color:#A3B0F5"/>
	</linearGradient>
	<path opacity="0.4" fill="url(#SVGID_26_)" d="M99.999,378.797c0.293-0.792,0.51-1.56,0.662-2.285
		c-0.804-1.069-3.664-4.526-6.954-8.326C93.357,370.124,94.801,375.019,99.999,378.797z"/>
	<path fill="#E5553E" d="M92.233,360.072c0,0,4.622-4.262,11.322,4.642c5.419,7.203,6.858,8.864,6.858,8.864l-6.521,6.165
		C103.892,379.743,86.327,366.133,92.233,360.072z"/>
	<path fill="#A1B5FF" d="M110.195,373.063c-0.509-0.08-7.308,5.326-7.272,6.123c0.018,0.395,1.073,1.164,1.073,1.164l7.167-6.111
		C111.163,374.238,110.545,373.116,110.195,373.063z"/>
	<path fill="#111111" d="M99.513,339.862c-0.151,1.779-0.629,2.825-2.195,4.045c-2.025,1.575-2.892,5.313-2.97,8.075
		c-0.025,0.902,0.084,1.811-0.058,2.697c-0.11,0.686-0.368,1.346-0.754,1.921c-0.289,0.432-0.646,0.813-0.922,1.253
		c-0.753,1.191-0.995,2.723-1.319,4.073c-0.289,1.196-0.788,2.478-1.942,3.083c-0.713,0.376-1.551,0.417-2.356,0.45
		c-1.879,0.074-3.76,0.151-5.641,0.079c-1.662-0.061-3.683-0.161-5.182-0.977c-1.092-0.593-1.428-1.999-1.473-3.242
		c-0.054-1.517,0.16-3.043,0.628-4.487c0.314-0.975,0.748-1.923,0.865-2.94c0.133-1.141-0.141-2.289-0.148-3.439
		c-0.013-1.764,0.71-2.999,1.461-4.497c0.765-1.532,1.383-3.161,1.772-4.828c0.438-1.877,1.611-3.528,2.873-4.947
		c1.613-1.815,3.414-3.373,5.848-3.864c4.218-0.851,10.756,0.635,11.358,5.851C99.403,338.548,99.545,339.491,99.513,339.862z"/>
</g>
<g>
	<polygon fill="#C7D2F2" points="23.856,96.357 23.856,52.263 19.273,52.263 19.273,100.942 102,100.942 102,96.357 	"/>
	<rect x="28.366" y="83.848" fill="#C7D2F2" width="8.025" height="9.02"/>
	<rect x="43.649" y="74.482" fill="#C7D2F2" width="8.025" height="18.386"/>
	<rect x="58.932" y="83.848" fill="#C7D2F2" width="8.023" height="9.02"/>
	<rect x="74.215" y="65.117" fill="#C7D2F2" width="8.023" height="27.751"/>
	<rect x="89.496" y="74.482" fill="#C7D2F2" width="8.025" height="18.386"/>
	<path fill="#C7D2F2" d="M50.054,60.292l8.119,7.351c0.579,0.525,1.44,0.591,2.096,0.164L80.776,54.37l1.292,1.976l1.808-3.577
		l1.808-3.576l-4,0.222l-4.002,0.222l1.213,1.855l-19.4,12.71l-8.103-7.337c-0.572-0.518-1.419-0.59-2.074-0.178L29.546,69.213
		l1.841,2.905L50.054,60.292z"/>
</g>
<g>
	<g>
		<circle fill="#C7D2F2" cx="279.99" cy="41.982" r="8.28"/>
		<path fill="#C7D2F2" d="M292.265,62.917h-24.55l0,0c0-6.149,4.982-11.133,11.132-11.133h2.283
			C287.279,51.784,292.265,56.768,292.265,62.917L292.265,62.917z"/>
	</g>
	<g>
		<circle fill="#C7D2F2" cx="312.724" cy="41.982" r="8.278"/>
		<path fill="#C7D2F2" d="M325,62.917h-24.553l0,0c0-6.149,4.985-11.133,11.135-11.133h2.283C320.015,51.784,325,56.768,325,62.917
			L325,62.917z"/>
	</g>
	<g>
		<circle fill="#C7D2F2" cx="247.255" cy="41.982" r="8.279"/>
		<path fill="#C7D2F2" d="M259.529,62.917h-24.55l0,0c0-6.149,4.982-11.133,11.132-11.133h2.284
			C254.545,51.784,259.529,56.768,259.529,62.917L259.529,62.917z"/>
	</g>
	<g>
		<g>
			<g>
				<path fill="#C7D2F2" d="M312.819,26.778c-0.328,0-0.593-0.266-0.593-0.593V12.313H247.75v13.872c0,0.327-0.264,0.593-0.59,0.593
					c-0.328,0-0.593-0.266-0.593-0.593V11.721c0-0.327,0.265-0.591,0.593-0.591h65.659c0.326,0,0.591,0.264,0.591,0.591v14.464
					C313.41,26.512,313.146,26.778,312.819,26.778z"/>
			</g>
		</g>
		<g>
			<path fill="#C7D2F2" d="M279.989,26.778c-0.328,0-0.592-0.266-0.592-0.593V11.721c0-0.327,0.264-0.591,0.592-0.591
				c0.326,0,0.591,0.264,0.591,0.591v14.464C280.58,26.512,280.315,26.778,279.989,26.778z"/>
		</g>
	</g>
	<circle fill="#C7D2F2" cx="312.882" cy="27.47" r="1.919"/>
	<circle fill="#C7D2F2" cx="279.958" cy="27.47" r="1.919"/>
	<circle fill="#C7D2F2" cx="247.095" cy="27.47" r="1.918"/>
</g>
</svg>
