<?xml version="1.0" standalone="no"?>
<!DOCTYPE svg PUBLIC "-//W3C//DTD SVG 20010904//EN"
 "http://www.w3.org/TR/2001/REC-SVG-20010904/DTD/svg10.dtd">
<svg version="1.0" xmlns="http://www.w3.org/2000/svg"
 width="220.000000pt" height="149.000000pt" viewBox="0 0 220.000000 149.000000"
 preserveAspectRatio="xMidYMid meet">

<g transform="translate(0.000000,149.000000) scale(0.100000,-0.100000)"
fill="#000000" stroke="none">
<path d="M0 745 l0 -745 1100 0 1100 0 0 745 0 745 -1100 0 -1100 0 0 -745z
m1387 484 c27 -23 45 -69 38 -100 -4 -16 -27 -56 -51 -90 -39 -53 -47 -59 -61
-47 -31 25 -93 131 -93 158 0 31 33 77 64 91 26 11 83 4 103 -12z m-177 -9 c0
-6 -41 -10 -104 -10 -80 0 -105 -3 -109 -14 -9 -23 2 -26 100 -26 51 0 93 -4
93 -9 0 -5 3 -16 6 -25 5 -14 -16 -16 -200 -16 l-206 0 0 -190 0 -190 295 0
295 0 0 139 c0 111 3 141 15 151 13 11 15 -6 15 -148 0 -137 -2 -161 -16 -166
-9 -3 -150 -6 -314 -6 -242 0 -300 3 -309 14 -12 14 -15 463 -4 493 4 10 51
13 224 13 139 0 219 -4 219 -10z m-320 -315 l0 -125 -25 0 -25 0 0 118 c0 65
3 122 7 125 3 4 15 7 25 7 16 0 18 -10 18 -125z m182 -7 c4 -104 1 -118 -28
-118 -24 0 -24 1 -24 95 0 94 0 95 24 95 23 0 25 -3 28 -72z m-92 -38 c0 -79
0 -80 -25 -80 -25 0 -25 1 -25 80 0 79 0 80 25 80 25 0 25 -1 25 -80z m190 0
l0 -80 -30 0 -30 0 0 73 c0 41 3 77 7 80 3 4 17 7 30 7 22 0 23 -3 23 -80z
m90 0 c0 -79 0 -80 -25 -80 -25 0 -25 1 -25 80 0 79 0 80 25 80 25 0 25 -1 25
-80z m90 -50 c0 -25 -4 -30 -25 -30 -21 0 -25 5 -25 30 0 25 4 30 25 30 21 0
25 -5 25 -30z m-1119 -370 c5 0 9 -4 9 -9 0 -6 -17 -11 -37 -13 -53 -4 -52
-35 2 -65 21 -12 42 -30 46 -41 17 -47 -44 -92 -97 -72 -37 14 -28 29 14 23
27 -4 42 -1 51 10 14 17 6 27 -64 82 -26 20 -28 26 -20 51 10 28 46 46 73 38
8 -2 18 -4 23 -4z m79 -68 c0 -88 12 -114 54 -114 41 0 47 11 48 93 1 79 5 99
19 99 5 0 9 -38 9 -84 0 -102 -15 -128 -74 -128 -62 0 -79 25 -82 119 -2 80 0
93 17 93 5 0 9 -35 9 -78z m292 47 c12 -14 16 -30 12 -48 -10 -38 -11 -39 -54
-51 -37 -10 -40 -14 -40 -44 0 -21 -6 -36 -15 -40 -13 -5 -15 11 -15 105 l0
111 48 -6 c31 -3 53 -13 64 -27z m158 15 c0 -10 -12 -14 -39 -14 -32 0 -40 -4
-45 -22 -7 -28 19 -51 52 -45 12 2 22 1 22 -3 0 -4 -16 -11 -36 -14 -33 -7
-35 -9 -32 -44 3 -35 5 -36 41 -36 23 0 37 -5 37 -12 0 -11 -52 -13 -102 -5
-5 0 -8 48 -8 105 l0 103 55 1 c41 0 55 -4 55 -14z m142 0 c9 -3 20 -14 23
-24 7 -22 -10 -60 -27 -60 -7 0 -7 -4 -1 -12 5 -7 17 -32 27 -56 15 -41 15
-43 0 -40 -10 2 -22 18 -29 37 -6 19 -21 41 -33 49 -26 17 -30 10 -34 -53 -6
-76 -23 -35 -26 62 -2 70 1 99 10 104 12 8 52 5 90 -7z m211 9 c82 -15 74
-120 -9 -126 -25 -2 -30 -7 -34 -40 -3 -21 -9 -39 -15 -40 -10 -2 -20 175 -11
198 5 13 28 16 69 8z m202 -13 c19 -16 19 -49 -1 -71 -14 -15 -14 -20 -1 -46
25 -49 30 -73 14 -73 -8 0 -22 20 -31 45 -14 36 -22 45 -41 45 -21 0 -24 -5
-27 -47 -5 -84 -23 -53 -26 46 -1 52 -1 100 2 106 5 15 91 12 111 -5z m258 3
c19 -11 3 -18 -40 -18 -47 0 -48 -1 -61 -39 -24 -73 24 -145 78 -116 31 16 47
12 28 -7 -26 -25 -84 -21 -114 9 -26 26 -34 80 -19 127 14 45 84 69 128 44z
m199 -74 l48 -84 0 88 c0 65 3 88 12 85 12 -4 22 -164 12 -199 -9 -32 -41 -8
-68 50 -15 31 -35 67 -44 79 -16 21 -17 20 -15 -41 2 -72 -3 -107 -17 -107 -6
0 -10 42 -10 103 0 149 12 152 82 26z m247 80 c41 -15 41 -33 -1 -24 -36 8
-36 8 -60 6 -25 -2 -50 -45 -50 -86 0 -49 25 -75 74 -75 37 0 38 1 38 34 0 29
-3 33 -24 32 -14 0 -24 4 -23 9 1 6 18 10 37 10 35 0 35 -1 38 -47 3 -47 3
-47 -36 -57 -76 -21 -132 21 -132 98 0 48 37 98 78 104 15 2 27 5 28 6 1 0 15
-4 33 -10z m-619 -99 c0 -82 -3 -100 -15 -100 -12 0 -15 18 -15 100 0 82 3
100 15 100 12 0 15 -18 15 -100z m240 0 c0 -82 -3 -100 -15 -100 -12 0 -15 18
-15 100 0 82 3 100 15 100 12 0 15 -18 15 -100z"/>
<path d="M1308 1190 c-25 -23 -22 -38 7 -52 33 -15 29 -44 -5 -40 -24 2 -24 2
-5 -16 19 -18 20 -18 37 4 24 30 23 42 -7 56 -31 14 -33 35 -3 40 18 2 19 5 7
14 -11 9 -18 7 -31 -6z"/>
<path d="M795 1200 c-8 -13 4 -32 16 -25 12 8 12 35 0 35 -6 0 -13 -4 -16 -10z"/>
<path d="M855 1200 c-4 -6 -3 -16 3 -22 6 -6 12 -6 17 2 4 6 3 16 -3 22 -6 6
-12 6 -17 -2z"/>
<path d="M904 1199 c-3 -6 -1 -16 5 -22 9 -9 14 -8 21 3 9 15 4 30 -10 30 -5
0 -12 -5 -16 -11z"/>
<path d="M516 387 c1 -44 10 -56 34 -50 51 13 44 83 -8 83 -24 0 -27 -3 -26
-33z"/>
<path d="M830 386 c0 -32 2 -34 27 -30 53 10 57 57 5 62 -31 3 -32 2 -32 -32z"/>
<path d="M1083 423 c-13 -5 -18 -74 -7 -85 3 -3 17 -3 32 1 22 6 27 13 27 41
0 33 -24 53 -52 43z"/>
<path d="M1243 423 c-13 -5 -18 -54 -7 -65 3 -3 17 -3 32 1 19 5 27 14 27 31
0 23 -28 41 -52 33z"/>
</g>
</svg>
